<?xml version="1.0" encoding="UTF-8" standalone="no"?>
<svg
   xmlns:dc="http://purl.org/dc/elements/1.1/"
   xmlns:cc="http://creativecommons.org/ns#"
   xmlns:rdf="http://www.w3.org/1999/02/22-rdf-syntax-ns#"
   xmlns:svg="http://www.w3.org/2000/svg"
   xmlns="http://www.w3.org/2000/svg"
   viewBox="0 0 2663.4668 2647.4668"
   height="2647.4668"
   width="2663.4668"
   xml:space="preserve"
   id="svg2"
   version="1.1"><metadata
     id="metadata8"><rdf:RDF><cc:Work
         rdf:about=""><dc:format>image/svg+xml</dc:format><dc:type
           rdf:resource="http://purl.org/dc/dcmitype/StillImage" /></cc:Work></rdf:RDF></metadata><defs
     id="defs6" /><g
     transform="matrix(1.3333333,0,0,-1.3333333,0,2647.4667)"
     id="g10"><g
       transform="scale(0.1)"
       id="g12"><g
         transform="scale(1.22552)"
         id="g14"><path
           id="path16"
           style="fill:#231f20;fill-opacity:1;fill-rule:nonzero;stroke:none"
           d="M 16300,0 H 0 V 16202.1 H 16300 V 0" /></g><path
         id="path18"
         style="fill:#ffffff;fill-opacity:1;fill-rule:nonzero;stroke:none"
         d="m 3545.39,7618 c 130.03,0 250.44,-60.3 361.26,-181 70.24,-100.3 104.88,-193.7 103.9,-280.4 l -0.75,-66.3 c -1.49,-131.8 -67.46,-253.7 -197.91,-365.9 -90.85,-68 -200.46,-102 -328.77,-102 H 2431.44 c -4.27,0 -6.35,2.2 -6.3,6.4 l 3.92,346.8 c 0.89,4.2 3.04,6.3 6.45,6.3 h 1055.51 c 71.39,0 120.54,25.5 147.46,76.5 10.48,23.8 15.81,45.1 16.02,63.7 0.72,63.8 -33.63,108.4 -103.01,133.9 -8.49,1.7 -16.99,2.6 -25.47,2.6 H 2244.87 l -16.55,-1462.2 c -0.05,-4.3 -2.21,-6.4 -6.44,-6.4 h -346.74 c -4.26,0 -6.35,2.1 -6.31,6.4 l 20.55,1815.3 c 0.9,4.2 3.04,6.3 6.45,6.3 h 1649.56" /><path
         id="path20"
         style="fill:#ffffff;fill-opacity:1;fill-rule:nonzero;stroke:none"
         d="m 4727.51,7618 c 4.24,0 6.35,-2.1 6.3,-6.3 l -20.55,-1815.3 c -0.05,-4.3 -2.21,-6.4 -6.44,-6.4 h -342.91 c -4.27,0 -6.36,2.1 -6.31,6.4 l 20.54,1815.3 c 0.9,4.2 3.05,6.3 6.46,6.3 h 342.91" /><path
         id="path22"
         style="fill:#ffffff;fill-opacity:1;fill-rule:nonzero;stroke:none"
         d="m 7216.26,7618 c 4.24,-0.8 6.35,-2.9 6.3,-6.3 l -3.92,-346.8 c -0.04,-4.2 -2.2,-6.3 -6.45,-6.3 H 6335.15 L 6318.6,5796.4 c -0.05,-4.3 -2.19,-6.4 -6.45,-6.4 h -346.73 c -4.26,0 -6.35,2.1 -6.31,6.4 l 16.55,1462.2 h -877.04 c -4.26,0 -6.34,2.1 -6.29,6.3 l 3.92,346.8 c 0.89,4.2 3.04,6.3 6.45,6.3 h 2113.56" /><path
         id="path24"
         style="fill:#ffffff;fill-opacity:1;fill-rule:nonzero;stroke:none"
         d="m 9705.03,7618 c 4.24,-0.8 6.34,-2.9 6.3,-6.3 l -3.92,-346.8 c -0.05,-4.2 -2.2,-6.3 -6.45,-6.3 H 8477.18 c -178.47,0 -330.72,-85.9 -456.72,-257.6 -56.32,-94.3 -84.99,-187.3 -86.04,-279.1 l -0.4,-35.7 c -1.85,-163.2 69.63,-305.1 214.45,-425.8 100.29,-73.9 204.81,-110.9 313.6,-110.9 H 9688.4 c 4.24,-0.9 6.34,-3 6.31,-6.4 l -3.93,-346.7 c -0.05,-4.3 -2.2,-6.4 -6.44,-6.4 H 8447.81 c -208.23,0 -404.48,80.7 -588.75,242.2 -99.14,102 -164.84,190.8 -197.14,266.5 -59.68,131.7 -88.84,257.9 -87.49,378.6 l 0.61,53.5 c 2.61,230.3 98.05,441.1 286.33,632.3 189.74,170 393.4,254.9 610.96,254.9 h 1232.7" /><path
         id="path26"
         style="fill:#ffffff;fill-opacity:1;fill-rule:nonzero;stroke:none"
         d="m 10427,7618 c 4.2,-0.8 6.3,-2.9 6.3,-6.3 l -7.2,-629.8 h 1411.2 l 7.1,629.8 c 0.9,4.2 3.1,6.3 6.5,6.3 h 342.9 c 4.2,-0.8 6.3,-2.9 6.3,-6.3 l -20.5,-1815.3 c -0.1,-4.3 -2.3,-6.4 -6.5,-6.4 h -342.9 c -4.3,0 -6.4,2.1 -6.3,6.4 l 9.3,826 h -1411.1 l -9.4,-826 c 0,-4.3 -2.2,-6.4 -6.4,-6.4 h -346.8 c -4.2,0 -6.3,2.1 -6.3,6.4 l 20.6,1815.3 c 0.9,4.2 3,6.3 6.4,6.3 h 346.8" /><path
         id="path28"
         style="fill:#ffffff;fill-opacity:1;fill-rule:nonzero;stroke:none"
         d="m 12911.9,7618 c 4.2,0 6.4,-2.1 6.3,-6.3 l -20.6,-1815.3 c 0,-4.3 -2.2,-6.4 -6.4,-6.4 h -342.9 c -4.3,0 -6.4,2.1 -6.3,6.4 l 20.5,1815.3 c 0.9,4.2 3.1,6.3 6.5,6.3 h 342.9" /><path
         id="path30"
         style="fill:#ffffff;fill-opacity:1;fill-rule:nonzero;stroke:none"
         d="m 13642.8,7618 c 887.8,-850.7 1352.3,-1294.7 1393.5,-1332.1 l 15,1325.8 c 0.9,4.2 3.1,6.3 6.5,6.3 h 342.9 c 4.2,-0.8 6.3,-2.9 6.2,-6.3 l -20.5,-1815.3 c 0,-4.3 -2.2,-6.4 -6.4,-6.4 h -349.3 l -1396.1,1334.7 -15,-1328.3 c -0.1,-4.3 -2.2,-6.4 -6.5,-6.4 h -346.7 c -4.3,0 -6.4,2.1 -6.3,6.4 l 20.5,1815.3 c 0.9,4.2 3.1,6.3 6.5,6.3 h 355.7" /><g
         transform="scale(1.0979)"
         id="g32"><path
           id="path34"
           style="fill:#ffffff;fill-opacity:1;fill-rule:nonzero;stroke:none"
           d="m 16294.2,6938.69 c 3.8,-0.73 5.8,-2.64 5.7,-5.74 l -3.5,-315.87 c -0.1,-3.83 -2,-5.74 -6,-5.74 h -1114.5 c -162.6,0 -301.3,-78.24 -416.1,-234.63 -51.3,-86.62 -77.4,-171.42 -78.3,-254.22 l -0.4,-32.51 c -1.6,-148.65 63.4,-277.89 195.4,-387.83 90.5,-67.31 187.6,-101.01 291.3,-101.01 h 793.1 l 8.6,752.43 c 0.8,3.83 2.7,5.74 5.8,5.74 h 312.3 c 3.9,-0.73 5.7,-2.73 5.7,-5.74 l -12.1,-1074.04 c -0.1,-3.92 -2,-5.83 -5.9,-5.83 h -1126.2 c -188.9,0 -367.6,73.5 -536.3,220.6 -90.3,92.9 -150.1,173.78 -179.5,242.73 -54.4,119.96 -80.9,234.91 -79.7,344.84 l 0.5,48.73 c 2.4,209.77 89.4,401.77 260.9,575.92 172.8,154.84 358.2,232.17 556.4,232.17 h 1122.8" /></g><path
         id="path36"
         style="fill:#ffffff;fill-opacity:1;fill-rule:nonzero;stroke:none"
         d="m 9603.06,4902.7 c 2.06,-0.4 3.1,-1.4 3.07,-3.1 l -1.9,-169.9 c -0.03,-2.1 -1.09,-3.1 -3.18,-3.1 h -995.88 c -2.08,0 -3.11,1 -3.09,3.1 l 1.92,169.9 c 0.44,2.1 1.5,3.1 3.17,3.1 h 995.89" /><path
         id="path38"
         style="fill:#ffffff;fill-opacity:1;fill-rule:nonzero;stroke:none"
         d="m 9606.59,5262.6 c 2.07,-0.5 3.09,-1.5 3.08,-3.2 l -1.93,-169.9 c -0.03,-2.1 -1.08,-3.1 -3.16,-3.1 h -995.89 c -2.09,0 -3.1,1 -3.07,3.1 l 1.9,169.9 c 0.46,2.1 1.5,3.2 3.17,3.2 h 995.9" /><path
         id="path40"
         style="fill:#ffffff;fill-opacity:1;fill-rule:nonzero;stroke:none"
         d="m 6772,5262.6 c 2.08,-0.5 3.11,-1.5 3.09,-3.2 l -1.93,-169.9 c -0.03,-2.1 -1.08,-3.1 -3.15,-3.1 h -429.85 l -8.1,-716.6 c -0.02,-2.1 -1.08,-3.1 -3.17,-3.1 h -169.93 c -2.09,0 -3.12,1 -3.1,3.1 l 8.11,716.6 h -429.85 c -2.08,0 -3.1,1 -3.08,3.1 l 1.92,169.9 c 0.45,2.1 1.49,3.2 3.16,3.2 H 6772" /><path
         id="path42"
         style="fill:#ffffff;fill-opacity:1;fill-rule:nonzero;stroke:none"
         d="m 7343.34,5262.6 c 2.08,-0.5 3.11,-1.5 3.09,-3.2 l -3.5,-308.6 h 691.63 l 3.49,308.6 c 0.45,2.1 1.5,3.2 3.16,3.2 h 168.08 c 2.06,-0.5 3.1,-1.5 3.07,-3.2 l -10.06,-889.6 c -0.02,-2.1 -1.08,-3.1 -3.17,-3.1 h -168.05 c -2.09,0 -3.12,1 -3.1,3.1 l 4.59,404.9 h -691.63 l -4.57,-404.9 c -0.03,-2.1 -1.08,-3.1 -3.17,-3.1 h -169.94 c -2.08,0 -3.1,1 -3.09,3.1 l 10.07,889.6 c 0.44,2.1 1.5,3.2 3.15,3.2 h 169.95" /><path
         id="path44"
         style="fill:#ffffff;fill-opacity:1;fill-rule:nonzero;stroke:none"
         d="m 9598.44,4542.9 c 2.08,-0.4 3.1,-1.5 3.07,-3.2 l -1.9,-169.9 c -0.05,-2.1 -1.09,-3.1 -3.17,-3.1 h -995.9 c -2.08,0 -3.1,1 -3.08,3.1 l 1.92,169.9 c 0.44,2.1 1.5,3.2 3.16,3.2 h 995.9" /><path
         id="path46"
         style="fill:#ffffff;fill-opacity:1;fill-rule:nonzero;stroke:none"
         d="m 12381.8,5262.6 c 63.7,0 122.8,-29.6 177.1,-88.8 34.4,-49.1 51.4,-94.9 50.9,-137.4 l -0.4,-32.5 c -0.7,-64.5 -33,-124.3 -97,-179.3 -44.5,-33.3 -98.2,-49.9 -161.1,-49.9 h -241.2 v -1.3 c 279,-231.6 439.9,-366.7 482.8,-405.5 v -1.2 h -270.6 c -319.8,266.6 -482.9,403.6 -489.5,411.1 l 1.9,169.9 c 0.5,2.1 1.5,3.1 3.2,3.1 h 517.3 c 35,0 59.1,12.5 72.2,37.5 5.2,11.7 7.8,22.1 7.9,31.2 0.3,31.3 -16.5,53.2 -50.5,65.7 -4.1,0.8 -8.3,1.2 -12.5,1.2 h -627.9 l -8.1,-716.6 c 0,-2.1 -1.1,-3.1 -3.2,-3.1 h -169.9 c -2.1,0 -3.1,1 -3.1,3.1 l 10.1,889.6 c 0.5,2.1 1.5,3.2 3.2,3.2 h 808.4" /><path
         id="path48"
         style="fill:#ffffff;fill-opacity:1;fill-rule:nonzero;stroke:none"
         d="m 13246.2,5262.6 276.4,-311.8 284,311.8 h 238.7 l -0.1,-3.2 -435.3,-481.6 -4.6,-408 c 0,-2.1 -1.1,-3.1 -3.2,-3.1 h -169.9 c -2.1,0 -3.1,1 -3.1,3.1 l 4.6,404.9 c -27.5,32.9 -169.6,195.1 -426.2,486.6 v 1.3 h 238.7" /><path
         id="path50"
         style="fill:#ffffff;fill-opacity:1;fill-rule:nonzero;stroke:none"
         d="m 10789.3,4422.8 c -50.9,-19.3 -103.6,-29.1 -156.6,-29.1 -17.8,0 -35.9,1.1 -53.9,3.3 -69,8.3 -133.8,32.3 -192.5,71.4 0.2,0.3 0.4,0.6 0.6,0.8 0.1,0.2 0.6,0.5 1.1,0.6 9.8,2.5 19.9,4.9 29.5,7.3 l 8.1,2 c 0.6,0.1 1.2,0.3 1.8,0.4 1.2,0.4 2.3,0.6 3.4,0.9 3.3,0.6 5.2,2.8 5.2,6.1 0,2 0,4 0,6.2 v 6.5 h -3.5 c -6.4,0 -12.7,-0.4 -18.9,-0.7 -3.6,-0.2 -7.2,-0.4 -10.9,-0.5 0.2,0.5 0.5,1 0.8,1.5 1.4,2.7 2.9,5.6 4.3,8.5 0.3,0.5 0.4,0.8 1.6,1.1 9.9,2.7 20,5.4 29.8,8.1 l 6.3,1.7 c 1,0.3 1.9,0.5 2.9,0.8 0.5,0.1 0.9,0.3 1.4,0.5 l 2.6,0.7 v 17.9 l -12.9,-0.9 c -6.1,-0.5 -12,-0.9 -18.1,-1.3 0.2,0.4 0.4,0.9 0.6,1.3 1.1,2.5 2.2,5 3.2,7.6 0.3,0.7 0.5,1 1.7,1.4 10.5,3.6 21.1,7.3 31.3,10.8 l 6.9,2.4 c 0.9,0.4 1.8,0.7 2.7,1 0.5,0.2 0.9,0.4 1.3,0.5 l 2.5,1 -1.1,17.7 -33,-4.6 c 0.2,0.7 0.5,1.4 0.7,2 1.2,3.3 2.5,6.6 3.6,10 0.3,0.8 0.5,1 1.3,1.3 9,3.4 18.1,7 26.8,10.4 2.8,1 5.5,2.1 8.2,3.2 0.8,0.3 1.6,0.6 2.6,1 l 3.5,1.4 -1.4,17.9 -3.8,-0.7 c -9.2,-1.6 -18.1,-3.2 -27.2,-4.8 0.2,0.7 0.4,1.5 0.7,2.2 1,3.5 2.1,7.1 3.1,10.7 0.2,0.8 0.5,1 1.2,1.4 9,4.1 18.1,8.3 26.9,12.4 l 7.7,3.6 c 0.8,0.4 1.5,0.7 2.3,1.1 0.4,0.2 0.9,0.4 1.4,0.7 l 2.3,1.1 -2.6,17.7 -31,-7.6 c 0.2,0.8 0.4,1.7 0.6,2.5 0.8,3.4 1.6,6.9 2.4,10.3 0.1,0.7 0.3,1 1.2,1.5 10.1,5.7 20.3,11.4 30.3,17 l 5.2,3 c 0.8,0.4 1.5,0.8 2.3,1.3 0.3,0.2 0.7,0.5 1.1,0.7 l 2.2,1.4 -4.1,17.2 -19,-6.2 c -4.2,-1.4 -8.5,-2.8 -12.8,-4.2 0.1,0.6 0.2,1.2 0.4,1.8 0.5,2.8 1,5.7 1.4,8.5 0.1,1.2 0.5,1.7 1.5,2.4 8.8,5.6 17.5,11.4 26.1,17 2.7,1.9 5.5,3.7 8.3,5.5 0.7,0.5 1.4,1 2.2,1.5 l 3.2,2.2 -5.2,17.1 -18.2,-7.4 c -4.4,-1.8 -8.8,-3.6 -13.2,-5.4 0.1,1.1 0.2,2.1 0.3,3.2 0.1,0.9 0.2,1.8 0.4,2.8 0.3,1.9 0.5,3.9 0.6,5.9 0,0.2 0,0.3 1,1 9.2,6.5 18.4,13 27.6,19.5 l 5.4,3.9 c 0.6,0.4 1.2,0.9 1.9,1.4 0.3,0.2 0.7,0.5 1.1,0.8 l 2.1,1.5 -5.6,17 -31.1,-14 c 0.1,0.7 0.1,1.3 0.1,1.9 0.2,2.6 0.4,5.3 0.4,7.9 0,1.4 0.4,2.1 1.4,3 8.7,7.5 17.5,15.3 25.9,22.8 2.8,2.5 5.5,5 8.3,7.5 0.4,0.3 0.7,0.6 1.1,0.9 0.2,0.2 0.4,0.4 0.6,0.6 l 1.9,1.8 -7.4,16.2 -3.4,-2 c -9.3,-5.5 -18.4,-10.8 -27.7,-16.3 0,0.5 0,1.1 0,1.6 0,3 0,6.1 -0.1,9.1 0,0.8 0.1,1.2 0.8,2 6.7,6.5 13.3,13.3 19.8,19.7 3.9,3.9 7.7,7.8 11.6,11.6 0.3,0.4 0.8,0.8 1.3,1.2 0.4,0.2 0.7,0.5 1.1,0.8 l 2.3,1.8 -8.7,16.6 -29.6,-20.2 c -0.1,0.4 -0.1,0.8 -0.1,1.2 -0.2,3 -0.4,6.1 -0.7,9.2 -0.2,1.1 0,1.6 0.8,2.5 5,5.8 10.1,11.8 15,17.5 1.6,2 3.2,3.9 4.9,5.9 l 1,1.1 c 3.3,3.9 6.5,7.7 9.7,11.6 0.4,0.4 0.8,0.9 1.1,1.3 0.2,0.2 0.3,0.5 0.5,0.7 l 1.5,2 -9.3,15 -29,-23.4 -0.5,3.7 c -0.1,0.7 -0.2,1.3 -0.3,2 -0.2,1.6 -0.4,3.3 -0.9,5.1 -0.1,0.5 -0.1,0.9 0.6,1.8 6.8,9.2 13.8,18.6 20.5,27.7 l 5.1,6.9 c 0.7,1 1.4,2 2.2,3 l 2.2,3.1 -10.4,14.5 -4.1,-3.8 c -7.4,-6.8 -14.6,-13.6 -22,-20.4 -0.2,0.9 -0.4,1.8 -0.6,2.8 -0.7,3.2 -1.5,6.6 -2.2,9.8 -0.2,1 -0.2,1.3 0.3,2.1 6.2,9.4 12.4,19 18.4,28.2 l 5.1,7.9 c 0.5,0.7 0.9,1.4 1.4,2.1 l 2.1,3.3 -11,14 -24.6,-25.8 c -0.2,0.6 -0.4,1.2 -0.6,1.8 -0.9,3.1 -1.8,6.4 -2.9,9.6 -0.2,0.7 -0.2,1.2 0.3,2.2 5.6,11.2 11.2,22.6 16.7,33.6 l 4.6,9.3 c 0.3,0.6 0.5,1.2 0.8,1.6 l 1.3,2.9 -12.7,12.4 -22.1,-29.6 c -0.1,0.1 -0.1,0.2 -0.1,0.2 -0.3,0.9 -0.7,1.8 -1,2.7 -0.9,2.2 -1.8,4.6 -2.8,6.9 -0.2,0.5 -0.3,0.8 0.1,1.8 5.1,12.2 10.2,24.7 15.2,36.7 l 3.7,9.1 c 0.2,0.6 0.4,1.1 0.7,1.8 l 1.3,3.3 -13.3,11.6 -4.6,-7.3 c -5.6,-8.7 -11,-17.2 -16.6,-26 -0.3,0.6 -0.6,1.2 -0.9,1.8 -1.8,3.8 -3.7,7.7 -5.6,11.4 -0.2,0.3 -0.3,0.4 0.3,1.7 4.9,12.6 9.8,25.3 14.7,38 0.4,0.8 0.7,1.6 1,2.6 0.2,0.4 0.3,0.8 0.5,1.3 l 0.9,2.3 -13.5,11.3 -18.5,-30.4 c -0.4,0.6 -0.7,1.3 -1.1,1.9 -1.7,2.9 -3.4,5.8 -5.2,8.7 -0.4,0.7 -0.5,1 -0.3,1.9 3.4,11.2 6.8,22.6 10.1,33.6 l 2.5,8.6 c 0.2,0.7 0.4,1.4 0.6,2.2 0.1,0.4 0.3,0.8 0.4,1.2 l 0.6,2.4 -5.5,3.8 c -1.7,1.2 -3.5,2.5 -5.4,3.8 l -3.4,2.4 -16.8,-33.6 -13.6,18.5 c 73.9,55.9 166.8,86.7 262.2,86.7 97,0 190.4,-31.1 263.5,-87.6 l -13.8,-18.8 -16.8,33.5 -14.4,-10 1.9,-6.5 c 1,-3.2 1.9,-6.4 2.8,-9.6 l 2,-6.5 c 2.4,-8.3 5,-16.9 7.6,-25.3 0.2,-1 0.2,-1.3 -0.3,-2 -1.8,-2.9 -3.6,-6 -5.4,-8.9 -0.3,-0.6 -0.6,-1.1 -0.9,-1.6 l -18.5,30.3 -3.2,-2.7 c -2.6,-2.2 -5,-4.2 -7.6,-6.3 l -2.6,-2.2 0.8,-2.3 c 0.2,-0.4 0.3,-0.8 0.4,-1.2 0.4,-0.9 0.7,-1.7 1,-2.6 1,-2.7 2.1,-5.3 3.1,-8 3.8,-9.8 7.8,-20 11.7,-30 0.5,-1.1 0.4,-1.7 -0.1,-2.8 -1.8,-3.4 -3.5,-6.9 -5.1,-10.2 -0.3,-0.7 -0.6,-1.4 -1,-2 -2.8,4.5 -5.7,9 -8.5,13.4 -3.4,5.3 -6.9,10.7 -10.4,16.2 l -2,3.1 -3,-2.1 c -2.1,-1.5 -3.8,-3 -5.5,-4.6 -1.1,-0.9 -2.1,-1.7 -3.1,-2.6 l -2,-1.6 1,-2.4 c 0.1,-0.4 0.2,-0.7 0.3,-1 0.3,-0.7 0.5,-1.3 0.7,-1.9 l 3.8,-9.2 c 4.9,-11.9 10,-24.2 15,-36.4 0.4,-0.9 0.4,-1.5 0,-2.4 -1.3,-3.1 -2.4,-6.2 -3.7,-9.4 -0.1,0.2 -0.2,0.3 -0.2,0.4 -0.6,0.8 -1.3,1.7 -1.9,2.6 -1.4,1.8 -2.8,3.6 -4.1,5.4 -0.7,0.9 -1.3,1.8 -1.9,2.6 l -1.2,1.6 c -1.6,2.1 -3.1,4.2 -4.7,6.3 -1.7,2.2 -3.4,4.5 -5.1,6.8 l -3.4,4.5 -2.9,-3.1 c -2.6,-2.7 -5,-5.3 -7.6,-8.1 l -1.8,-1.9 2.5,-5.2 c 1,-1.9 2,-3.9 3,-5.9 1.3,-2.8 2.7,-5.5 4,-8.2 4.6,-9.2 9.3,-18.7 13.9,-28.1 0.5,-0.8 0.5,-1.4 0.2,-2.2 -1,-3.3 -2,-6.7 -3,-10 -0.1,-0.4 -0.2,-0.8 -0.4,-1.2 l -24.5,25.7 -2.6,-3.2 c -2.3,-3 -4.5,-5.8 -6.9,-8.7 l -1.6,-2 1.4,-2.2 c 0.2,-0.3 0.5,-0.7 0.7,-1.1 0.4,-0.7 0.9,-1.3 1.3,-2 l 5,-7.7 c 6,-9.3 12.3,-18.9 18.5,-28.4 0.6,-1 0.6,-1.5 0.5,-2.3 -0.9,-3.5 -1.7,-7 -2.4,-10.5 -0.1,-0.7 -0.3,-1.4 -0.4,-2.1 l -26.2,24.3 -10.3,-14.5 1.4,-2.1 c 0.3,-0.3 0.5,-0.6 0.8,-0.9 0.4,-0.8 0.9,-1.5 1.4,-2.2 1.9,-2.5 3.8,-5.1 5.7,-7.7 6.6,-8.9 13.4,-18.1 20.1,-27.1 1,-1.3 1.2,-2.1 0.9,-3.5 -0.6,-3.2 -1.1,-6.5 -1.5,-9.8 -0.8,0.6 -1.6,1.2 -2.3,1.8 -1,0.9 -2.1,1.7 -3.2,2.6 -2.2,1.8 -4.5,3.6 -6.7,5.4 -1.1,0.9 -2.1,1.7 -3.2,2.6 l -13.6,10.9 -9.4,-15.2 4.7,-5.5 c 1.9,-2.4 3.8,-4.6 5.7,-6.9 l 4.5,-5.3 c 6.1,-7.1 12.3,-14.5 18.6,-21.7 1.2,-1.4 1.3,-2.1 1.1,-3.3 -0.4,-3.1 -0.6,-6.3 -0.7,-9.4 0,-0.2 -0.1,-0.4 -0.1,-0.6 -4.1,2.8 -8.1,5.5 -12.1,8.2 -4.6,3.2 -9.4,6.5 -14.3,9.7 l -3.3,2.2 -8.1,-15.8 1.7,-1.8 c 0.3,-0.3 0.6,-0.6 0.8,-0.9 0.6,-0.6 1.2,-1.2 1.8,-1.8 l 6,-6.1 c 8.2,-8.1 16.6,-16.6 24.9,-24.8 1,-0.9 1.2,-1.6 1.2,-2.8 -0.1,-3.4 -0.1,-6.9 -0.1,-10.4 -0.9,0.5 -1.7,1 -2.6,1.5 -1,0.6 -2,1.3 -3.1,1.9 -2.3,1.3 -4.6,2.7 -6.9,4.1 -1.3,0.8 -2.7,1.5 -4,2.3 -2.7,1.7 -5.5,3.3 -8.4,5 l -6.1,3.5 -1.6,-3.5 c -1.6,-3.6 -3.1,-6.9 -4.7,-10.3 l -1.1,-2.4 4.5,-4.1 c 3,-2.7 6,-5.3 9,-8 l 5,-4.5 c 6.4,-5.7 13.1,-11.6 19.6,-17.3 0.8,-0.7 1.1,-1.2 1.1,-2.1 0,-3.4 0.2,-6.8 0.4,-10.3 -4.3,1.9 -8.5,3.8 -12.6,5.7 -4.8,2.2 -9.8,4.4 -14.8,6.6 l -3.6,1.5 -5.6,-16.8 2.1,-1.6 c 0.4,-0.3 0.8,-0.6 1.2,-0.9 0.8,-0.5 1.5,-1.1 2.2,-1.6 l 6.5,-4.6 c 8.5,-6 17.3,-12.2 26,-18.3 1,-0.7 1.1,-1.1 1.2,-1.8 0.3,-3.3 0.7,-6.5 1,-9.6 0.1,-0.5 0.2,-1.1 0.2,-1.7 l -4.3,1.8 c -7.8,3.2 -15.5,6.3 -23.4,9.5 l -3.6,1.5 -5.4,-17.1 3.7,-2.4 c 0.8,-0.6 1.7,-1.2 2.5,-1.7 2.6,-1.7 5.3,-3.5 8,-5.3 8.3,-5.5 17,-11.2 25.5,-16.7 1.2,-0.7 1.6,-1.3 1.8,-2.6 0.5,-3.4 1,-6.7 1.7,-10.2 -2.2,0.7 -4.3,1.4 -6.3,2.1 -1.6,0.5 -3.3,1.1 -5,1.6 -3.8,1.3 -7.5,2.5 -11.5,3.8 -1.7,0.6 -3.5,1.2 -5.3,1.8 l -3.6,1.2 -4.2,-17.3 2.2,-1.3 c 0.3,-0.2 0.6,-0.4 0.9,-0.6 0.7,-0.4 1.3,-0.8 2,-1.2 2.7,-1.5 5.3,-3 8,-4.5 8.8,-5 18,-10.1 27,-15.1 1.7,-0.9 2.2,-1.6 2.5,-3.1 0.6,-3.4 1.4,-6.7 2.3,-10 0.1,-0.6 0.3,-1.2 0.4,-1.8 -6.6,1.6 -13.1,3.2 -19.7,4.8 l -11.2,2.7 -2.7,-17.7 3.7,-1.8 c 1,-0.4 1.8,-0.8 2.7,-1.2 2.5,-1.2 5.1,-2.4 7.6,-3.6 8.6,-4 17.6,-8.1 26.4,-12.2 1,-0.4 1.2,-0.7 1.4,-1.6 0.9,-3.4 2,-6.8 3,-10.1 0.3,-0.9 0.6,-1.8 0.8,-2.6 l -30.9,5.4 -0.4,-3.9 c -0.2,-2.8 -0.5,-5.5 -0.7,-8.2 l -0.5,-5.7 2.5,-0.9 c 0.6,-0.3 1.2,-0.6 1.7,-0.8 1.3,-0.5 2.4,-1 3.6,-1.4 l 4.9,-1.9 c 9.3,-3.6 18.8,-7.4 28.2,-10.9 1.1,-0.4 1.3,-0.7 1.6,-1.5 1.3,-4 2.8,-7.9 4.3,-12 -4.3,0.6 -8.6,1.2 -12.7,1.8 -5.4,0.8 -10.9,1.6 -16.5,2.3 l -3.7,0.4 -1.2,-17.6 2.5,-1 c 0.8,-0.2 1.6,-0.5 2.4,-0.8 1.9,-0.7 3.6,-1.3 5.4,-1.9 l 5.2,-1.9 c 9.6,-3.3 19.5,-6.8 29.3,-10.1 0.9,-0.3 1.3,-0.6 1.6,-1.5 1.2,-2.9 2.5,-5.8 3.8,-8.8 -3.7,0.2 -7.4,0.5 -11,0.8 -5.3,0.4 -10.9,0.9 -16.4,1 l -3.7,0.2 v -17.5 l 2.5,-0.8 c 0.4,-0.1 0.8,-0.3 1.2,-0.4 1,-0.3 2,-0.6 3,-0.9 l 3.7,-1 c 10.7,-2.9 21.8,-5.9 32.8,-8.8 1,-0.3 1.3,-0.6 1.7,-1.4 1.5,-3.3 3.1,-6.5 4.9,-9.8 -3.7,0.1 -7.3,0.4 -10.8,0.5 -6.2,0.4 -12.5,0.7 -18.9,0.8 h -3.6 v -17.2 l 2.5,-0.8 c 0.3,-0.1 0.6,-0.2 0.9,-0.3 0.7,-0.2 1.4,-0.5 2.2,-0.6 3.1,-0.8 6.1,-1.6 9.2,-2.3 10.4,-2.7 21.3,-5.4 31.9,-7.9 0.9,-0.2 1.4,-0.4 1.9,-0.6 -11.2,-8.9 -60.3,-35.1 -88,-45.5 z m -407.4,94.5 c -1.6,-2.7 -3,-5.5 -4.5,-8.4 -3.4,4 -6.8,8.1 -10.1,12.1 l -14.8,17.8 -11.3,-12.6 1.1,-2.2 c 0.1,-0.3 0.3,-0.7 0.5,-1 0.4,-0.8 0.7,-1.4 1,-2.2 4.4,-8 8.7,-16.1 13.1,-24.2 l 5.9,-11 c -94.5,70.8 -158.2,183.9 -170.6,303.7 -15.3,148.1 42.9,292.2 155.7,386.3 3.5,-4.3 9.6,-12.6 13,-17.7 l -35.2,-7 4.5,-16.6 7.5,-0.1 c 4.4,-0.1 8.5,-0.1 12.6,-0.2 5,-0.1 9.9,-0.2 14.9,-0.3 3.8,-0.1 7.7,-0.2 11.5,-0.3 h 0.2 0.2 c 2.3,-3.9 4.6,-7.7 7,-11.8 l -37.5,-4.2 2.9,-16.8 2.7,-0.2 c 1.3,-0.2 2.6,-0.4 4,-0.5 2.8,-0.3 5.8,-0.7 8.7,-1 10.5,-1.1 21.7,-2.3 32.7,-3.4 0.5,-0.1 0.6,-0.2 0.6,-0.2 0.1,0 0.1,-0.1 0.2,-0.3 1.1,-2.5 2.4,-5.1 3.6,-7.5 0.3,-0.7 0.7,-1.4 1,-2 -9.4,-0.8 -18.6,-1.6 -27.9,-2.3 l -5.6,-0.5 0.6,-3.8 c 0.6,-3.6 1.1,-6.9 1.6,-10.4 l 0.5,-2.6 2.6,-0.4 c 1.4,-0.2 2.8,-0.4 4.1,-0.6 3,-0.4 5.8,-0.8 8.6,-1.2 l 1.1,-0.2 c 8.1,-1.1 16.5,-2.2 24.8,-3.3 0.9,-0.1 1,-0.2 1.2,-0.9 1.3,-3.6 2.7,-7.1 4,-10.5 0.4,-1 0.8,-2 1.2,-3 h -34.7 l 1.5,-17.1 2.6,-0.6 c 1.4,-0.3 2.8,-0.6 4.1,-0.9 2.7,-0.7 5.5,-1.3 8.3,-1.9 l 3.6,-0.8 c 7.7,-1.7 15.6,-3.5 23.5,-5.1 0.2,-0.1 0.4,-0.1 0.5,-0.2 v 0 c 1.2,-4 2.4,-8.2 3.6,-12.1 0.4,-1.2 0.7,-2.4 1.1,-3.6 l -1.5,0.2 c -10.3,1.3 -20.6,2.6 -30.9,3.9 l -4,0.5 V 4991 l 2.2,-0.8 c 0.3,-0.2 0.6,-0.3 0.9,-0.4 0.8,-0.3 1.7,-0.7 2.6,-1 l 6.9,-2.4 c 9.9,-3.5 20.2,-7.2 30.3,-10.6 0.9,-0.3 0.9,-0.4 1.1,-1.1 0.9,-4.4 1.8,-8.7 2.8,-13.2 0,-0.1 0.1,-0.3 0.1,-0.4 -4.9,0.9 -9.8,1.9 -14.5,2.8 -5.6,1.1 -11.5,2.3 -17.4,3.3 l -3.2,0.5 -0.8,-3.2 c -0.8,-2.8 -0.8,-5.5 -0.8,-8.1 -0.1,-1.1 -0.1,-2 -0.1,-3 l -0.2,-2.5 2.3,-1 c 0.7,-0.3 1.5,-0.6 2.2,-0.9 1.4,-0.7 2.8,-1.3 4.2,-1.9 2.5,-1 5,-2.1 7.6,-3.2 8,-3.4 16.3,-6.9 24.5,-10.3 1.5,-0.6 1.5,-0.7 1.6,-1.6 0.3,-3.4 0.9,-6.7 1.4,-10 0,-0.3 0.1,-0.7 0.1,-1 -9.9,2.6 -19.8,5.3 -30,7.9 l -3.8,1.1 -2.5,-16.9 2.3,-1.2 c 12.5,-6.3 24.9,-12.6 37.3,-18.8 l 1.2,-15.5 c -4.8,1.7 -9.6,3.4 -14.2,5.1 -5.4,1.9 -10.9,3.9 -16.5,5.7 l -3.8,1.3 -3.4,-16.4 2,-1.4 c 0.3,-0.2 0.6,-0.4 0.9,-0.6 0.7,-0.5 1.5,-0.9 2.2,-1.4 2.3,-1.4 4.5,-2.8 6.8,-4.1 8.6,-5.3 17.6,-10.8 26.4,-16.1 1,-0.5 1.1,-0.7 1,-1.7 -0.1,-4.1 0,-8.2 0,-12.5 v -0.1 c -4.9,2 -9.8,4 -14.5,6.1 -5,2.1 -10.2,4.3 -15.4,6.4 l -3.8,1.5 -4.2,-16.3 2.9,-2.1 c 0.8,-0.6 1.6,-1.2 2.4,-1.7 l 6.4,-4.4 c 8.2,-5.7 16.7,-11.5 25.1,-17.2 0.8,-0.5 0.8,-0.5 0.7,-1.3 -0.3,-3.9 -0.4,-7.9 -0.6,-11.8 0,-0.8 -0.1,-1.5 -0.1,-2.3 -10.1,5.6 -20.1,11.1 -30.3,16.8 l -3.6,2 -1.5,-3.9 c -1,-2.8 -2,-5.3 -3,-7.9 l -1.5,-3.9 1.7,-1.7 c 0.3,-0.2 0.5,-0.4 0.8,-0.6 0.5,-0.6 1.1,-1.1 1.7,-1.7 2.3,-1.9 4.6,-3.9 6.9,-5.8 8.2,-7.1 16.7,-14.4 25.1,-21.5 1.4,-1.2 1.4,-1.6 1.3,-2.7 -0.6,-3.2 -0.9,-6.5 -1.3,-9.6 0,-0.5 0,-1.1 -0.1,-1.6 -2.3,1.3 -4.6,2.7 -6.8,4 -1.9,1.2 -3.9,2.4 -5.8,3.5 -3.9,2.3 -7.7,4.6 -11.8,7 -1.8,1.1 -3.6,2.2 -5.5,3.3 l -3.5,2.1 -6.5,-15.6 1.8,-1.7 c 0.3,-0.3 0.6,-0.6 0.9,-0.9 0.7,-0.7 1.4,-1.3 2.2,-2 2.3,-2.1 4.5,-4.1 6.8,-6.2 7.6,-7 15.6,-14.2 23.4,-21.2 0.9,-0.7 0.8,-1 0.7,-1.7 -0.7,-3.2 -1.2,-6.5 -1.7,-9.7 -0.2,-0.9 -0.4,-1.7 -0.5,-2.6 l -32.3,22.4 -7.6,-15 1.7,-1.8 c 0.2,-0.3 0.4,-0.5 0.6,-0.8 0.5,-0.5 1,-1.1 1.6,-1.7 2.3,-2.4 4.5,-4.8 6.8,-7.2 7.3,-7.6 14.9,-15.4 22.4,-23.1 1,-1.1 1,-1.5 0.7,-2.6 -1,-3.8 -1.9,-7.7 -2.8,-11.4 -0.2,-0.9 -0.4,-1.7 -0.6,-2.5 l -31,25.3 -2.3,-2.8 c -2,-2.5 -3.5,-5.1 -4.9,-7.6 -0.2,-0.5 -0.6,-1.1 -0.9,-1.7 l -1.2,-2.1 1.5,-1.8 c 0.3,-0.4 0.5,-0.7 0.8,-1 0.6,-0.7 1.1,-1.5 1.7,-2.2 2.1,-2.6 4.3,-5.2 6.4,-7.8 7,-8.6 14.2,-17.3 21.4,-25.9 0.8,-1 0.9,-1.3 0.5,-2.5 -1.3,-3.8 -2.5,-7.7 -3.8,-11.8 -0.1,0.1 -0.1,0.1 -0.2,0.2 -0.7,0.6 -1.3,1.3 -2,1.9 -1.4,1.2 -2.7,2.5 -4.1,3.7 -0.6,0.7 -1.3,1.4 -2,2 -1.5,1.4 -3,2.8 -4.4,4.1 l -1.8,1.7 c -2.1,1.9 -4.2,3.8 -6.2,5.8 l -9.5,8.8 -9.5,-13.9 1.3,-2 c 0.2,-0.3 0.4,-0.6 0.5,-0.9 0.5,-0.6 0.8,-1.2 1.2,-1.8 1.9,-2.6 3.8,-5.2 5.6,-7.8 6.8,-9.5 13.9,-19.4 20.9,-29 0.8,-1.2 0.7,-1.4 0.4,-2.1 -1.1,-2.6 -2.1,-5.3 -3,-7.9 l -0.7,-1.9 -27.8,27.8 -10.2,-13.7 3.6,-5.4 c 1.9,-2.9 3.8,-5.7 5.7,-8.6 1.4,-2.1 2.7,-4.2 4.1,-6.3 4.3,-6.5 8.8,-13.2 13.2,-19.8 0.6,-0.8 0.6,-0.9 0.2,-1.8 -1.3,-2.8 -2.6,-5.7 -3.9,-8.6 -0.3,-0.8 -0.7,-1.6 -1.1,-2.4 -8.1,9.3 -16.1,18.5 -24.3,27.9 l -2.7,3.1 -11,-12.9 1.1,-2.1 c 0.3,-0.4 0.5,-0.9 0.7,-1.3 0.4,-0.8 0.8,-1.5 1.3,-2.3 1.6,-2.9 3.2,-5.8 4.9,-8.6 5.4,-9.7 11.1,-19.6 16.8,-29.4 0.6,-1.1 0.5,-1.3 0.1,-2.1 z m 691.6,297.6 c -9.1,-186.4 -124.4,-292.4 -169.7,-327 4.1,7.5 8.1,15.1 12.1,22.5 1.6,2.9 3.1,5.8 4.7,8.7 0.4,0.7 0.7,1.4 1.1,2.2 l 1.9,3.5 -1.6,1.9 c -2.2,2.4 -4.4,4.9 -7,7.7 l -2.7,3.1 -12.6,-15.1 c -4.1,-4.9 -8.2,-9.8 -12.4,-14.8 -0.2,0.5 -0.5,1 -0.7,1.5 -1.3,2.4 -2.5,4.9 -4,7.3 -0.2,0.6 -0.3,0.6 0.3,1.5 5.7,9.9 11.4,20.1 17,29.9 l 4.8,8.4 c 0.3,0.7 0.7,1.3 1.2,2.1 0.2,0.5 0.4,0.9 0.7,1.4 l 1.2,2.1 -4.1,4.9 c -1.4,1.5 -2.8,3.2 -4.2,4.9 l -2.7,3.2 -2.7,-3.1 c -8.2,-9.4 -16.2,-18.6 -24.4,-28 -0.2,0.4 -0.4,0.8 -0.6,1.2 -0.5,1.2 -1.1,2.4 -1.6,3.7 -0.9,2.1 -1.9,4.3 -2.9,6.5 -0.3,0.6 -0.3,0.6 0.1,1.3 6.1,9 12.3,18.3 18.2,27.2 1.7,2.6 3.4,5.2 5.2,7.8 0.4,0.7 0.9,1.4 1.4,2.2 l 2,3.1 -9.3,12.5 -2.7,-1.5 c -2.2,-1.2 -3.8,-2.9 -5.2,-4.3 -0.5,-0.6 -1,-1.2 -1.5,-1.6 -1.4,-1.3 -2.8,-2.7 -4,-4 -0.6,-0.5 -1.1,-1.1 -1.7,-1.7 l -5.7,-5.7 c -0.6,-0.6 -1.2,-1.2 -1.8,-1.8 -1.3,-1.2 -2.6,-2.5 -3.8,-3.8 -0.8,-0.8 -1.5,-1.6 -2.2,-2.4 -0.3,0.8 -0.6,1.5 -0.9,2.3 -0.9,2.6 -1.9,5.3 -3,8 -0.2,0.5 -0.3,0.6 0.3,1.3 6.9,9.6 13.9,19.4 20.7,28.9 l 5.1,7.2 c 0.6,0.7 1.1,1.5 1.7,2.3 0.3,0.4 0.6,0.9 0.9,1.4 l 1.5,2 -9.7,14 -30.2,-28.2 c -0.4,1.1 -0.7,2.1 -1,3.2 -1,3.1 -1.9,6.2 -3,9.4 -0.1,0.6 -0.2,0.6 0.4,1.3 7.1,8.5 14.2,17.2 21.1,25.6 2.2,2.7 4.4,5.4 6.7,8.2 0.6,0.7 1.2,1.5 1.9,2.4 l 2.5,3.1 -8.7,14.6 -3.2,-2.6 c -9.6,-7.8 -18.9,-15.5 -28.5,-23.3 v 0 c -0.4,1.5 -0.8,3 -1.1,4.6 -0.7,3.1 -1.4,6.3 -2.4,9.5 -0.2,1 -0.2,1.3 0.7,2.2 7.4,7.7 14.9,15.5 22.1,23 2.3,2.4 4.6,4.8 6.9,7.2 0.6,0.6 1.1,1.2 1.7,1.8 0.3,0.3 0.5,0.6 0.8,1 l 1.7,1.8 -7.6,15.1 -7.3,-5.1 c -8.3,-5.8 -16.5,-11.5 -24.9,-17.3 -0.2,1 -0.4,2.1 -0.6,3.1 -0.5,2.9 -1,6 -1.6,8.9 -0.2,0.9 -0.3,1.2 0.7,2 7.8,7 15.6,14.1 23.3,21.1 2.3,2.1 4.6,4.2 6.9,6.3 0.7,0.6 1.3,1.2 2,1.9 l 2.9,2.6 -6.6,15.7 -33.4,-20 c -0.1,0.9 -0.2,1.8 -0.4,2.7 -0.1,0.9 -0.1,1.8 -0.2,2.8 -0.2,1.9 -0.3,3.9 -0.8,5.9 -0.2,1 -0.2,1.3 1.3,2.6 6.3,5.3 12.7,10.7 18.9,16 2.1,1.9 4.3,3.7 6.4,5.6 1.9,1.6 3.8,3.2 5.7,4.8 l 5.3,4.6 -6.1,15.9 -33.9,-18.8 c -0.2,1.9 -0.3,3.8 -0.4,5.6 -0.1,1.1 -0.1,2.2 -0.1,3.4 -0.1,1.7 -0.1,3.4 -0.2,5.2 -0.1,0.7 -0.1,0.7 0.7,1.2 7.9,5.3 15.8,10.8 23.4,16.1 2.4,1.6 4.9,3.3 7.3,4.9 0.9,0.6 1.8,1.3 2.7,2 l 3.4,2.3 -4.2,16.6 -33.8,-14.3 c 0,1 0,2 0,3 0.1,3.3 0.1,6.8 0.1,10.3 v 0 c 0,0.4 0,0.5 0,0.5 0,0 0.1,0.2 0.6,0.5 8.8,5.2 17.8,10.7 26.4,16 l 6.8,4.1 c 0.8,0.5 1.6,1 2.4,1.5 0.3,0.2 0.7,0.4 1.1,0.7 l 2,1.3 -3.4,16.7 -34.5,-12.2 c 0,0.4 0,0.8 0,1.3 0.2,1.7 0.3,3.6 0.5,5.3 0.2,2.6 0.5,5.4 0.6,8.1 0,0.5 0.1,0.7 0.1,0.7 0,0 0.1,0.1 0.7,0.4 8.8,4.4 17.6,8.9 26.2,13.2 l 7.3,3.7 c 0.7,0.3 1.3,0.7 2,1 0.3,0.2 0.7,0.5 1.1,0.6 l 2.2,1.2 -2.2,16.8 -3.9,-1 c -9.1,-2.4 -18,-4.8 -27.1,-7.2 l -3,-0.8 c 0.2,1.7 0.4,3.4 0.7,5 0,0.8 0.2,1.5 0.3,2.3 0.3,1.4 0.6,2.9 0.7,4.4 0,0.2 0,0.3 0,0.3 0.1,0.1 0.3,0.2 0.7,0.4 9.2,3.8 18.6,7.8 27.7,11.6 l 8.1,3.4 c 0.7,0.3 1.5,0.7 2.3,1.1 l 3.4,1.5 -0.1,2.4 c -0.2,3.4 -0.4,6.7 -0.5,10.6 l -0.3,4.1 -4,-0.8 c -10.8,-2.1 -21.4,-4.1 -32.1,-6.1 0.3,1.1 0.5,2.2 0.8,3.4 0.8,3.4 1.5,6.9 2.2,10.4 0.1,0.3 0.1,0.4 0.1,0.4 0,0 0.2,0.2 0.8,0.4 10.1,3.4 20.3,7.1 30.2,10.5 2.9,1 5.7,2.1 8.5,3.1 0.5,0.1 1,0.3 1.4,0.5 0.3,0.1 0.5,0.2 0.8,0.3 l 2.2,0.9 v 16.7 l -3.9,-0.3 c -6.9,-0.6 -13.8,-1.6 -20.5,-2.5 -4,-0.5 -8,-1 -12,-1.5 0.4,1.5 0.9,3 1.3,4.4 1.1,3.7 2.2,7.5 3.3,11.3 v 0.1 c 0.1,0 0.3,0.1 0.4,0.1 9.8,2.1 19.8,4.3 29.4,6.4 3,0.7 5.9,1.3 8.9,2 0.3,0.1 0.6,0.2 0.9,0.3 0.2,0 0.4,0.1 0.6,0.2 l 2.2,0.6 1.8,16.8 h -34.9 c 0.2,0.6 0.4,1.1 0.6,1.7 0.6,1.4 1.2,2.8 1.7,4.2 1.1,2.6 2.1,5.3 3.1,8 0.1,0.3 0.2,0.5 0.2,0.5 0,0 0.2,0.1 0.6,0.1 5.9,0.7 11.8,1.6 17.5,2.4 l 3.2,0.4 c 4.3,0.5 8.5,1.1 12.9,1.8 l 7.9,1.1 2.8,16.9 -33.6,2.7 c 0.4,0.7 0.7,1.4 1,2.1 1.2,2.4 2.4,4.9 3.6,7.4 0.1,0.2 0.2,0.4 0.2,0.4 0,0 0.2,0 0.3,0.1 10,1 20.2,2.1 30.1,3.1 l 2.3,0.3 c 3,0.3 5.9,0.6 9,1 1.4,0.1 2.8,0.3 4.3,0.5 l 2.6,0.3 0.5,2.6 c 0.6,3.4 1.2,6.7 1.9,10.4 l 0.6,3.8 -3.8,0.4 c -11.2,1.3 -22.2,2.5 -33.7,3.7 1.5,2.6 3,5.1 4.4,7.5 0.4,0.6 0.7,1.2 1,1.8 0.4,0.8 1.1,2.2 1.5,2.5 0.1,0 0.4,0.1 1.4,0.1 0.5,0 1,0 1.5,0 0.7,0 1.4,-0.1 2.1,-0.1 7,0.2 14,0.3 21,0.5 4.9,0.1 9.9,0.2 14.8,0.3 0.9,0 1.7,0.1 2.5,0.1 0.4,0.1 0.8,0.1 1.3,0.2 l 2.5,0.2 4.4,16.3 -16.2,3.2 c -6.4,1.2 -12.6,2.5 -18.9,3.7 3.2,5 9.2,13.4 13,17.9 104.9,-86.4 163.4,-220.6 156.6,-359.6 z m 28.9,47.2 c -0.1,0.5 -0.2,0.9 -0.3,1.4 -0.1,0.7 -0.2,1.4 -0.3,2.1 -0.9,25.1 -4.7,51.3 -11.5,80.1 -17.3,72.3 -50.2,137.3 -97.7,193.4 -31.4,37.2 -67.3,68.8 -106.5,93.9 -39.3,25.2 -83,44.5 -129.9,57.5 -18.7,5.1 -38.2,9.1 -58.2,11.8 -17,2.4 -31.1,3.6 -44.1,4 -0.8,0.1 -1.7,0.2 -2.7,0.3 -0.4,0.1 -1,0.2 -1.5,0.2 l -0.2,0.1 h -35 l -0.3,-0.1 c -0.4,0 -0.8,-0.1 -1.2,-0.1 -0.8,-0.2 -1.6,-0.3 -2.3,-0.3 -54.2,-2.6 -105.8,-13.5 -153.5,-32.4 -47.7,-19 -92.7,-46.5 -133.7,-81.8 -32.5,-27.9 -60.6,-59.7 -83.8,-94.4 -23,-34.4 -41.6,-72.6 -55.3,-113.5 -9.1,-27.2 -15.5,-55.2 -19.3,-83.4 -1.1,-8.4 -1.8,-17 -2.5,-25.2 -0.3,-4.1 -0.7,-8.4 -1.1,-12.6 -0.2,-2.1 -0.5,-4.4 -0.8,-6.5 -0.1,-1 -0.2,-2 -0.3,-3.1 l -0.1,-0.2 v -33.7 l 0.1,-0.2 c 0.1,-1 0.2,-2 0.4,-3 0.3,-2.1 0.6,-4.1 0.7,-6.1 2.1,-40.1 9.4,-79.7 21.7,-117.8 20.3,-63 52.8,-119.8 96.7,-168.9 27.2,-30.4 57.6,-56.9 90.5,-78.8 32.9,-22 69.1,-39.9 107.6,-53.2 22.6,-7.9 46.3,-14 70.7,-18.3 15.4,-2.8 29.6,-4.6 43.3,-5.7 15.2,-1.2 28.6,-1.7 40.8,-1.7 7.9,0 15.6,0.2 22.9,0.7 13.5,0.9 26.8,1.8 40.2,3.6 39,5.4 76.9,15.4 112.5,29.8 33,13.4 64.2,30.2 92.7,50.1 28.6,19.9 55.2,43.2 79.2,69.5 25.1,27.6 46.8,57.8 64.4,89.7 17.6,31.8 31.6,66.3 41.6,102.3 6.1,22.2 10.4,44.1 12.9,65.1 0.7,6.8 1.3,13.8 1.8,20.5 0.3,3.3 0.5,6.7 0.8,10 0.1,0.8 0.2,1.6 0.3,2.4 0.1,0.4 0.2,0.8 0.3,1.2 v 0.3 50.8 0.2" /><path
         id="path52"
         style="fill:none;stroke:#ffffff;stroke-width:43.57920074;stroke-linecap:butt;stroke-linejoin:miter;stroke-miterlimit:10;stroke-dasharray:none;stroke-opacity:1"
         d="m 11111.5,4838.5 c 0,-264.6 -214.5,-479 -479,-479 -264.6,0 -479,214.4 -479,479 0,264.5 214.4,478.9 479,478.9 264.5,0 479,-214.4 479,-478.9 z" /><path
         id="path54"
         style="fill:#ffffff;fill-opacity:1;fill-rule:nonzero;stroke:none"
         d="m 1902.56,5009 h 3422.4 V 4667.9 H 1902.56 V 5009" /><g
         transform="scale(1.09583)"
         id="g56"><path
           id="path58"
           style="fill:#ffffff;fill-opacity:1;fill-rule:nonzero;stroke:none"
           d="M 13176.9,4570.97 H 16300 V 4259.7 h -3123.1 v 311.27" /></g><path
         id="path60"
         style="fill:#ffffff;fill-opacity:1;fill-rule:nonzero;stroke:none"
         d="m 10660,8606.4 c 0,0 -0.2,16.5 -6.6,46.3 -1.6,7.5 -3.4,15.8 -5.4,24.9 -1.9,9.1 -5.4,18.9 -8.3,29.5 -3.2,10.5 -6.5,21.9 -10.1,34 -4.2,11.9 -9.2,24.4 -14.1,37.7 -5,13.3 -10.2,27.2 -15.7,41.8 -6.5,14.3 -13.3,29.3 -20.3,44.9 -7.1,15.5 -14.4,31.6 -22,48.4 -8,16.5 -17.4,33.3 -26.5,50.8 -18.6,34.8 -37.1,72.2 -60.9,109.7 -11.4,18.9 -23,38.4 -35,58.2 -12,19.9 -23.8,40.3 -37.8,60.3 -27.1,40.2 -55.3,82.1 -84.5,125.4 -30.4,42.6 -63.2,85.7 -96.1,130.3 -16.8,22.1 -32.8,45.2 -50.8,67.3 -18,22.2 -36.2,44.6 -54.6,67.3 -18.4,22.7 -36.9,45.6 -55.6,68.7 -19,22.9 -37,46.8 -57.49,69.3 -39.98,45.6 -80.62,92 -121.75,138.9 -20.71,23.32 -40.81,47.26 -62.29,70.38 -21.66,23.01 -43.41,46.14 -65.25,69.35 -43.6,46.37 -87.54,93.07 -131.66,139.97 -21.64,23.7 -45.06,46.1 -67.88,69 l -68.77,68.5 c -45.79,45.7 -91.58,91.3 -137.18,136.7 -46.22,44.9 -93.7,88.4 -139.97,132.2 -93.06,87.1 -183.15,173.7 -275.07,253.5 -91.36,81.2 -179.68,159.8 -263.43,234.3 -25.98,23.9 -48.05,45.8 -70.04,68.7 -21.75,22.6 -42.5,45.4 -62.3,68.5 -39.73,46 -76.06,93 -108.83,141.1 -32.79,48.1 -62.13,97 -87.47,146.8 -25.24,49.8 -46.37,100.5 -63.13,150.9 -17.13,50.1 -28.35,101.3 -36.08,149.8 -3.22,24.6 -6.54,48.1 -7.42,71.7 -0.65,11.7 -1.34,23 -1.67,34.2 0.13,11.4 0.27,22.4 0.41,33.2 2.09,86.8 18.65,156.4 32.2,202.2 6.94,22.9 13.75,39.9 17.88,51.6 4.34,11.6 6.58,17.6 6.58,17.6 53.92,144 214.41,217 358.44,163.1 144.04,-53.9 217.09,-214.4 163.15,-358.4 -4.57,-12.3 -9.91,-24 -15.95,-35.1 l -1.33,-2.4 c 0,0 -0.86,-1.6 -2.52,-4.6 -1.56,-3.1 -4.75,-7.3 -7.91,-13.3 -5.94,-12.1 -14.46,-29.6 -20.21,-57 -0.75,-3.5 -1.5,-7 -2.29,-10.7 -0.41,-3.9 -0.84,-7.9 -1.28,-12 -1.48,-8 -1.21,-17.4 -1.81,-27.1 0.24,-19.8 0.82,-42.5 5.86,-68.8 4.59,-26.2 11.8,-55.6 22.57,-87.4 10.93,-31.9 25.31,-66.2 43.1,-102 17.75,-35.8 39.12,-73.1 63.65,-110.8 12.17,-18.9 25.26,-37.9 38.93,-56.7 13.48,-18.5 28.39,-37.8 41.67,-54 73.64,-85.5 151.3,-175.7 231.63,-268.9 81.89,-92.8 162.05,-193.4 244.48,-294.2 40.98,-50.6 82.96,-100.9 123.75,-152.6 40.18,-52.4 80.5,-104.9 120.83,-157.5 l 60.36,-78.6 c 19.99,-26.3 40.5,-52 59.43,-79.2 38.45,-53.6 76.76,-107 114.76,-160 18.96,-26.4 37.84,-52.8 56.64,-79 18.62,-26.3 35.96,-53.6 53.86,-80.05 35.3,-53.18 70.3,-105.7 104.6,-157.35 17.6,-25.5 32.9,-52.4 49,-78.3 16,-26 31.7,-51.8 47.3,-77.3 15.5,-25.5 30.9,-50.7 46.1,-75.6 15.3,-24.8 28.5,-50.6 42.6,-75.4 27.4,-50 54.8,-97.9 79.8,-145.2 23.8,-48 46.8,-94.4 68.8,-138.9 11.5,-21.9 20.8,-44.5 30.3,-66.3 9.5,-21.9 18.7,-43.1 27.7,-63.9 18.9,-41 32.8,-81.9 46.9,-119.6 6.8,-19 14,-37.1 19.9,-54.9 5.5,-18.1 10.7,-35.5 15.8,-52.2 5,-16.7 9.8,-32.7 14.4,-47.9 3.6,-15.6 7,-30.5 10.3,-44.6 3.2,-14.1 6.4,-27.3 9,-39.9 2.1,-12.7 3.9,-24.6 5.7,-35.7 1.6,-11.1 3.7,-21.2 4.4,-30.7 0.8,-9.5 1.5,-18.1 2.1,-25.8 2.4,-30.8 0.4,-47.1 0.4,-47.1" /><path
         id="path62"
         style="fill:#ffffff;fill-opacity:1;fill-rule:nonzero;stroke:none"
         d="m 6136.68,9644.4 c 0,0 0.13,0.7 0.39,2.1 0.3,1.3 1.19,3.2 2.19,5.8 0.82,2.9 3.12,5.4 5.23,9 1.15,1.7 2.33,3.7 3.75,5.7 1.62,1.7 3.34,3.6 5.17,5.6 3.82,3.7 7.55,9 12.85,13 5.2,4.2 10.9,8.8 17.04,13.8 6.11,5.2 13.57,9 21.1,14.1 7.73,4.5 15.68,10.5 24.74,14.9 35.69,19.1 80.8,39.5 133.88,58.2 53.02,19.4 113.86,37 180.77,55.1 33.58,8.2 68.56,16.7 104.77,25.52 36.32,8.14 73.95,15.42 112.73,23.53 19.39,3.83 39.1,8.33 59.01,11.79 19.94,3.47 40.13,6.98 60.53,10.52 40.83,6.91 82.7,14.75 125.23,21.31 42.58,6.22 85.87,12.56 129.68,18.97 21.97,3.2 44.06,6.41 66.26,9.64 22.19,2.73 44.47,5.46 66.86,8.21 89.57,10.92 180.93,22.8 272,31.31 45.63,4.7 91.27,9.3 136.73,13.9 l 34.1,3.5 4.25,0.4 2.14,0.3 c 1.88,0 -12.62,-0.1 -5.99,0 l 1.04,0.2 c 1.59,0.4 0.29,0.6 2.56,1 l 10.92,2.7 c 15.61,3.9 32.49,8.9 48.84,14.4 66.16,22.5 126.44,55.4 173.78,93.3 47.85,37.8 82.43,81.2 108,124.8 24.76,44.5 40.42,90.2 50.15,135.4 1.17,5.7 2.31,11.3 3.44,16.8 l 1.76,8.2 1.09,8.6 c 1.54,11.2 3.04,22.2 4.51,32.9 0.97,22.8 3.86,42.8 3.19,63.9 0.11,10.1 0.23,20 0.34,29.5 -0.5,9.8 -1,19.3 -1.47,28.4 -0.42,9.1 -0.82,17.8 -1.19,26.1 -0.94,8.5 -1.83,16.7 -2.67,24.4 -1.87,15.6 -2.57,29 -4.67,41.3 -1.97,12.2 -3.64,22.6 -5,31.1 -2.61,16.7 -4,25.7 -4,25.7 l -0.48,3.1 c -25.69,165.2 87.38,319.9 252.57,345.6 165.18,25.7 319.91,-87.4 345.6,-252.6 3.24,-20.8 4.14,-43.1 3.13,-63.3 0,0 -0.76,-13.7 -2.17,-39.2 -0.77,-12.7 -1.72,-28.3 -2.82,-46.7 -1.05,-18.4 -4.09,-40.2 -6.63,-64.2 -1.4,-11.9 -2.88,-24.6 -4.44,-37.8 -2.26,-13.4 -4.64,-27.5 -7.11,-42.2 -2.59,-14.6 -5.27,-29.7 -8.07,-45.5 -3.7,-15.9 -7.52,-32.3 -11.49,-49.4 -7.11,-33.6 -19.45,-70.2 -30.88,-107.9 -7.14,-18.9 -14.44,-38.3 -21.93,-58.2 -1.92,-4.9 -3.84,-9.9 -5.79,-14.9 -2.23,-4.9 -4.5,-9.9 -6.77,-15 -4.59,-9.9 -9.22,-20 -13.92,-30.3 -38.47,-81.1 -92.31,-166.4 -164.17,-243.46 -72.42,-76.46 -161.92,-143.54 -260.76,-190.44 -98.86,-47.3 -204.56,-76.4 -312.71,-88.4 -27.27,-2.8 -54.47,-4.8 -83.38,-5.4 -7.16,-0.1 -14.63,-0.2 -22.52,-0.1 l -14.23,0.1 -1.04,0.1 c 5.92,0.1 -9.28,0 -8.09,0 l -2.07,0.2 -4.16,0.5 -33.25,3.5 c -44.43,4.7 -89.04,9.5 -133.65,14.3 -89.42,10.2 -178.53,17.2 -266.61,24.8 -22.02,1.9 -43.96,3.8 -65.79,5.7 -21.78,1.3 -43.44,2.7 -64.99,4.1 -43.17,2.7 -85.81,5.3 -127.77,8 -41.95,2.3 -83.02,3.2 -123.45,4.8 -20.22,0.7 -40.22,1.4 -59.98,2.1 -19.77,0.7 -39.09,0.4 -58.32,0.6 -38.34,0.1 -75.89,0.7 -112.03,0.3 -36.07,-1.2 -70.94,-2.3 -104.41,-3.3 -66.67,-3.8 -128,-8.3 -181.61,-16.1 -53.84,-7 -99.85,-17.2 -137.19,-28.1 -9.54,-2.3 -17.63,-6.2 -25.85,-9 -7.93,-3.2 -16.06,-5.4 -22.52,-9 -6.68,-3.4 -12.86,-6.6 -18.52,-9.5 -5.89,-2.7 -9.98,-6.6 -14.42,-9.5 -2.13,-1.5 -4.13,-2.9 -6.01,-4.2 -1.68,-1.5 -3.1,-3.1 -4.51,-4.5 -2.64,-2.9 -5.53,-5 -6.7,-7.4 -1.43,-2.2 -2.71,-3.9 -3.31,-5.1 -0.53,-1.3 -0.81,-2 -0.81,-2" /><path
         id="path64"
         style="fill:#ffffff;fill-opacity:1;fill-rule:nonzero;stroke:none"
         d="m 12897.6,14237.4 c 0,0 -4.5,9.1 -15.7,24.4 -11.1,15.2 -29,36.4 -55.6,58.3 -26.6,21.7 -62.1,43.9 -106,59 -21.9,7.5 -45.7,13.7 -71.3,17.2 -25.3,4 -52.5,5.1 -80.6,4.4 -56.4,-2 -117,-12.7 -179.2,-32.3 -62.2,-19.5 -126.1,-47 -189.9,-80.3 -8,-4.3 -16,-8.6 -24,-13 l -12,-6.5 -6,-3.2 -3,-1.6 -1.5,-0.9 c -1.5,-0.7 1.3,0.6 0.7,0.3 l -0.8,-0.5 c -16.7,-9.8 -33.6,-19.6 -50.5,-29.5 -33.9,-19.8 -68.3,-39.8 -102.9,-60 -69.2,-40.4 -139.4,-81.4 -209.7,-122.4 -35.2,-20.6 -70.4,-41.1 -105.4,-61.5 -35,-20.4 -68.5,-42 -102.5,-62.7 -67.5,-41.7 -134,-82.7 -198.3,-122.5 -64.1,-39.6 -126,-77.8 -184.8,-114.1 -58.7,-37.3 -114.2,-72.6 -165.5,-105.1 -51.2,-32.5 -98.1,-62.3 -139.7,-88.7 -41.7,-26.4 -77.8,-49.5 -107.2,-68.8 -59.1,-38.2 -92.9,-60 -92.9,-60 l -1.5,-1 c -129.6,-83.8 -302.5,-46.8 -386.4,82.8 -83.8,129.5 -46.7,302.5 82.8,386.4 16.7,10.7 35.4,20 53.2,26.8 0,0 38.5,14.5 105.9,39.9 33.7,12.8 74.5,28.1 121.4,45.2 46.8,17.2 99.6,36.6 157.2,57.8 57.7,21.1 120,44 186,68.3 66.8,23.5 137.2,48.4 210,74.1 72.6,25.7 147.7,52.2 223.9,79.1 38.1,13.2 76.4,27.4 114.9,40 38.5,12.5 77.2,25.1 115.9,37.6 77.3,25.2 154.7,50.4 230.8,75.2 38.1,12.3 75.9,24.6 113.2,36.8 18.7,6.1 37.2,12.1 55.6,18.1 l 0.9,0.3 c -0.1,-0.1 3.4,1.4 2.4,0.9 l 1.8,0.5 3.7,1.1 7.4,2.1 14.6,4.3 c 9.7,2.8 19.4,5.6 29,8.4 77.7,21.1 154.8,36.2 229.1,42.9 74.4,6.7 146.2,4 210.8,-7.9 32.3,-6.2 62.8,-14.2 90.7,-25.1 28,-10.2 53.4,-23 75.9,-36.8 45.3,-27.4 78.1,-59.7 100.9,-88.4 22.8,-28.9 36.1,-54.3 43.9,-71.9 7.8,-17.6 10.3,-27.5 10.3,-27.5" /><path
         id="path66"
         style="fill:#ffffff;fill-opacity:1;fill-rule:nonzero;stroke:none"
         d="m 9635.27,13659.7 c 0,0 354.08,7 652.63,319.4 0,0 124.6,66.1 -245.7,-1.8 0,0 -185.17,317.8 -570.89,172.8 0,0 -342.51,-256.1 -98.75,-617.2 0,0 176.71,34.5 262.71,126.8" /><path
         id="path68"
         style="fill:#ffffff;fill-opacity:1;fill-rule:nonzero;stroke:none"
         d="m 9728.03,12612.9 -8.34,-24.8 -8.24,-22.4 c -5.56,-14.5 -11.16,-28.9 -17.03,-42.8 -11.6,-28.2 -23.87,-55.7 -36.85,-83 -6.25,-13.7 -13.18,-27.2 -19.97,-40.7 -6.66,-13.5 -13.7,-26.9 -21.1,-40.3 -7.36,-13.3 -14.22,-26.7 -22.24,-39.9 l -23.43,-39.6 -25.23,-39.2 c -8.1,-13.1 -17.83,-26 -26.81,-38.8 -9.14,-12.9 -18.1,-25.7 -28.43,-38.3 l -30.15,-37.8 -33.05,-36.9 c -10.54,-12.3 -23.42,-24.2 -35.49,-36 -12.37,-11.8 -23.9,-23.6 -38.03,-34.7 l -40.83,-33.2 20.74,21 1.31,1.7 c 0.34,0.4 0.12,0.2 0.21,0.4 l 0.07,0.4 c -0.06,0.1 -0.46,-0.2 -0.69,-0.3 -0.46,-0.2 -1.46,-1.2 -2.19,-1.7 -1.7,-1.5 -3.56,-3.2 -5.49,-5.3 -3.88,-3.9 -7.87,-8.5 -11.83,-13.2 -7.88,-9.5 -15.52,-20 -22.39,-30.9 -13.87,-21.9 -25.35,-45.3 -33.55,-69.6 -16.77,-48.6 -20.78,-101 -9.96,-157.1 5.44,-28 14.73,-56.7 27.32,-85.5 l 10.02,-21.6 11.54,-21.4 2.88,-5.5 c 2.43,-3.1 -3.13,4 -2.46,3.1 l 0.25,-0.4 0.51,-0.7 1.01,-1.6 2.03,-3.1 8.11,-12.5 16.23,-25 16.23,-25 4.05,-6.2 1.01,-1.6 c 1.31,-1.5 -10.44,12 -5.32,6.1 l 0.27,-0.3 0.58,-0.8 2.27,-2.9 4.38,-5.7 3.46,-4.3 c 4.9,-5.8 8.67,-11.3 14.45,-17.8 l 18,-19.6 c 11.58,-13.4 25.07,-26 38.21,-38.8 13.24,-12.8 26.06,-26 40.57,-38 28.33,-24.4 56.19,-49.8 86.99,-72.2 l 45.34,-34.9 11.38,-8.7 11.88,-8.1 23.84,-16.1 47.84,-32.4 24.03,-16.3 c 8.11,-5.2 16.57,-9.9 24.87,-14.9 l 100.43,-59.4 11.47,-6.9 12.76,-6.5 26.14,-12.7 c 17.54,-8.5 35.25,-16.6 53.06,-24.6 35.65,-15.8 71.73,-30.7 108.43,-44 36.6,-13.1 73.8,-24.9 111.8,-32.5 18.9,-3.8 38.1,-6.6 57.4,-6.6 19,0.2 38.9,2.8 55,14.9 -13.3,-15.2 -34,-22.8 -53.8,-27 -20.1,-4.1 -40.5,-5.3 -60.8,-5.5 -40.8,-0.2 -81.2,4 -121.3,9.7 -40,5.8 -79.77,13.3 -119.25,21.9 -19.76,4.4 -39.43,8.9 -59.09,13.8 l -29.51,7.6 -14.93,4.1 -1.95,0.5 -0.9,0.3 -2.01,0.7 -3.58,1.3 -7.16,2.4 -115,39.5 c -9.59,3.4 -19.34,6.4 -28.82,10.1 l -28.26,11.6 -56.71,23.4 -28.45,11.8 -14.26,5.9 -13.89,6.7 -55.76,27 c -37.67,17.2 -73.74,38.4 -110.44,58.9 -18.52,9.8 -36.22,21.7 -54.24,33 -17.98,11.5 -36.11,22.7 -53.76,35.9 l -26.7,19.3 c -9.02,6.6 -19.04,15.3 -28.51,23 l -13.08,11.1 -2.83,2.4 -0.69,0.6 -0.36,0.3 c 4.88,-5.7 -7.07,8.1 -5.95,6.8 l -1.31,1.3 -5.24,5.3 -20.93,21.2 -20.95,21.2 -10.48,10.6 -2.62,2.6 -1.3,1.3 -0.66,0.7 -0.32,0.3 c 0.47,-0.6 -5.3,6.8 -3.02,3.8 l -5.69,6.7 -22.74,26.9 -21.6,28.5 c -28.15,38.9 -53.58,81.6 -74.06,128.3 -20.5,46.6 -35.89,97.1 -44.45,149.7 -8.61,52.5 -10.49,106.9 -5.1,160.4 5.08,53.6 17.01,106.2 34.57,156.8 8.78,25.4 19.08,50.2 31.04,74.8 6.08,12.3 12.39,24.6 19.59,37 3.51,6.2 7.37,12.6 11.44,19.1 l 6.67,10.2 3.85,5.5 2.39,3.3 1.38,1.9 2.48,3.1 20.74,20.9 c 5.17,7.1 10.36,13.9 15.61,20.6 5.39,6.2 10.18,14.7 15.19,22.2 4.94,7.8 10.21,14.6 14.75,23.6 l 14.18,25 13.2,27.1 c 4.58,8.6 8.53,18.4 12.6,27.9 3.99,9.6 8.4,18.6 11.95,28.8 l 11.24,29.7 10.27,30.7 c 3.58,10 6.4,20.8 9.58,31.1 3.21,10.4 6.18,21 8.87,31.7 2.79,10.6 5.72,21.2 8.1,32 5.15,21.4 9.81,43.1 13.7,64.5 2.09,10.8 3.77,21.3 5.42,31.8 l 2.12,15.2 c 0.46,2.8 0.38,4.1 0.51,5.9 l 0.17,2.5 0.59,4.6 c 18.44,141.8 148.33,241.8 290.14,223.3 141.79,-18.4 241.79,-148.3 223.36,-290.1 -2.16,-16.6 -5.84,-32.6 -10.88,-47.9 l -1.63,-4.7" /><path
         id="path70"
         style="fill:#ffffff;fill-opacity:1;fill-rule:nonzero;stroke:none"
         d="m 8386.99,12447.7 c 0,0 5.2,0 14.91,0.1 9.71,0.2 24.03,-0.2 42.11,0.5 18.01,1.9 39.61,2 64.13,6.7 12.26,1.9 25.27,3.7 38.59,7.5 6.66,1.6 13.5,3.3 20.51,5 7.02,1.6 13.82,4.6 20.93,6.8 7.04,2.5 14.28,4.8 21.48,7.6 7,3.2 14.13,6.4 21.39,9.7 3.6,1.7 7.24,3.3 10.9,5 3.48,2 7,4 10.55,6 7.02,4.2 14.26,8.1 21.31,12.5 27.84,18.4 54.36,41.1 78.63,67.7 24.27,26.6 45.6,57.7 65.42,90.6 19.85,32.9 37.53,68.5 54.3,105.1 33.68,73 63.68,150.2 96.78,223.1 16.19,36.5 33.62,71.9 51.05,105.4 18.02,33.4 36.02,65 54.84,93.5 9.34,14.3 18.27,28.1 27.82,40.7 9.34,12.7 17.91,25 27.15,35.9 9.07,11 17.27,21.5 25.49,30.8 8.43,9.2 16.18,17.7 23.17,25.3 13.87,15.4 26.45,26.2 34.33,34.2 8.12,7.7 12.44,11.9 12.44,11.9 45.49,43.5 117.63,41.9 161.15,-3.6 43.5,-45.5 41.92,-117.6 -3.57,-161.1 -4.54,-4.4 -9.36,-8.3 -14.38,-11.7 l -4.04,-2.7 c 0,0 -3.63,-2.5 -10.42,-7.1 -6.64,-4.8 -17.23,-10.7 -29.4,-20.4 -6.2,-4.8 -13.06,-10 -20.52,-15.7 -7.41,-5.9 -14.99,-12.9 -23.42,-20.1 -8.55,-6.9 -16.89,-15.5 -25.99,-24.2 -9.26,-8.5 -18.34,-18.3 -27.96,-28.6 -19.31,-20.4 -39.1,-44.4 -59.75,-70.6 -20.3,-26.7 -41.39,-55.6 -62.42,-87.1 -42.55,-62.4 -85.44,-133.8 -133.93,-204.3 -24.15,-35.2 -49.77,-70.2 -78.08,-102.9 -28.24,-32.7 -58.33,-63.5 -91.4,-89.2 -33.07,-25.6 -68.05,-46.4 -102.88,-61.6 -8.8,-3.5 -17.69,-6.5 -26.27,-9.7 -4.3,-1.6 -8.57,-3.2 -12.8,-4.7 -4.35,-1.1 -8.68,-2.3 -12.96,-3.4 -8.52,-2.2 -16.89,-4.4 -25.11,-6.5 -8.3,-1.7 -16.53,-2.8 -24.49,-4.2 -8.02,-1.1 -15.72,-3 -23.42,-3.3 -7.66,-0.6 -15.14,-1.1 -22.43,-1.7 -14.5,-1.5 -28.29,-1 -41.16,-0.8 -25.7,-0.4 -48.11,3.2 -66.24,4.5 -18.03,2.3 -32.01,5.2 -41.64,6.6 -9.57,1.6 -14.7,2.5 -14.7,2.5" /><path
         id="path72"
         style="fill:#ffffff;fill-opacity:1;fill-rule:nonzero;stroke:none"
         d="m 10469.7,13152 c 0,0 0.2,-7.7 0.6,-22.1 0.4,-14.4 1.1,-35.3 1.2,-62.4 0,-13.5 0.1,-28.5 0.1,-44.8 -0.1,-16.4 -0.8,-34 -1.3,-52.9 -0.3,-18.9 -1.5,-39 -2.8,-60.3 -0.7,-10.6 -1.1,-21.6 -2.1,-32.8 -1.1,-11.2 -2.2,-22.6 -3.4,-34.3 -4.5,-46.9 -12.8,-97.7 -23.7,-151.7 -3.3,-13.4 -6.6,-27 -10,-40.8 -1.8,-6.8 -3.6,-13.8 -5.4,-20.7 -2.2,-6.9 -4.4,-13.9 -6.6,-20.8 -4.5,-14 -9,-28.1 -13.6,-42.4 -5.5,-14 -10.9,-28.2 -16.5,-42.5 -23.4,-56.6 -51.7,-114.9 -89,-168.5 -17.3,-28 -38.4,-53.1 -58.2,-79.7 -10.7,-12.5 -21.5,-25 -32.3,-37.5 l -16.3,-18.7 c -5.7,-6.1 -11.5,-11.8 -17.2,-17.8 l -34.6,-35.4 -18.9,-17.9 -8.3,-8 -10.1,-8.9 c -13.7,-12.4 -26.5,-22.8 -39.4,-33.6 -13,-10.5 -25.9,-21 -39,-30.8 -52.2,-39.8 -104.66,-73.3 -154.98,-100.4 -50.42,-27.2 -98.33,-48.9 -141.96,-69.1 -21.64,-10.5 -42.61,-19.9 -61.88,-30.2 -19.98,-9.5 -37.74,-20.1 -55.53,-29.7 -34.72,-20 -65.27,-40.6 -92.03,-61.3 -26.7,-20.6 -49.52,-41.2 -68.01,-59.5 -4.71,-4.6 -9.16,-9 -13.35,-13.1 -4.09,-4.3 -7.91,-8.4 -11.46,-12.2 -7.47,-7.4 -13.61,-14.1 -18.59,-19.6 -9.95,-11 -15.85,-17 -15.85,-17 l -0.46,-0.4 c -4.94,-5 -12.96,-5 -17.92,-0.1 -2.27,2.3 -3.51,5.2 -3.72,8.2 0,0 -0.55,8.3 -0.46,24.1 0.02,3.9 -0.09,8.4 0.08,13.2 0.38,4.9 0.81,10.1 1.25,15.8 0.61,5.8 1.26,11.9 1.93,18.5 0.85,6.5 2.28,13.4 3.58,20.7 2.3,14.9 7.03,30.7 11.89,48.4 3.05,8.6 6.22,17.6 9.51,26.9 3.3,9.5 7.89,18.5 12.14,28.4 17.95,38.7 43.82,80.8 78.39,120.6 34.23,40 76.27,78.4 122.39,112.1 45.82,34.5 95.77,64.4 146.51,90.6 25.59,13 51.09,25.1 76.77,36.7 25.74,11.6 51.24,22.7 76.1,34.7 12.6,5.8 24.64,12 36.96,18.2 11.86,6.5 24.12,13.2 34.48,19.4 l 8.19,4.7 9.48,6.2 16.45,11.2 33.3,25.8 c 5.5,4.4 11.2,8.6 16.6,13.1 l 15.7,13.9 31.3,27.9 c 19.1,20 40,38.8 57.2,60.2 36.6,41.1 68.4,85.3 96.2,130.7 6.7,11.6 13.4,23 20,34.3 6,11.8 11.9,23.5 17.7,35 3,5.8 5.9,11.6 8.8,17.3 2.5,5.9 5.1,11.8 7.6,17.7 5.2,11.7 10.3,23.3 15.4,34.7 18.4,46.7 34.4,92 46.4,135.2 6.1,21.5 12.2,42.2 17,62.2 5.2,19.9 10.1,38.9 14,56.9 8.3,36 14.6,67.6 20.1,93.6 5.6,26.1 9.1,47 12,61.1 2.8,14.1 4.3,21.6 4.3,21.6 1.3,6.4 7.4,10.5 13.8,9.3 5.5,-1.1 9.3,-5.9 9.5,-11.2" /><path
         id="path74"
         style="fill:#ffffff;fill-opacity:1;fill-rule:nonzero;stroke:none"
         d="m 13627.9,15692.9 c 0,-105.2 -85.4,-190.5 -190.6,-190.5 -105.2,0 -190.5,85.3 -190.5,190.5 0,105.2 85.3,190.5 190.5,190.5 105.2,0 190.6,-85.3 190.6,-190.5" /><path
         id="path76"
         style="fill:#ffffff;fill-opacity:1;fill-rule:nonzero;stroke:none"
         d="m 6880.95,11370 c 0,0 14.28,26.1 41.09,75.1 27.04,48.8 66.66,120.5 118.59,210.9 103.72,180.9 255.83,437.3 453.85,735.5 99.34,148.9 209.78,308.4 331.99,473.4 60.87,82.7 125.15,166.3 191.51,251.4 66.93,84.6 136.12,170.4 208.37,256.2 144.46,171.6 299.51,344.4 464.76,513 82.54,84.4 167.36,168 254.8,249.6 43.31,41.2 88.05,81.1 132.34,121.6 45.1,39.6 89.78,79.8 135.81,118.5 91.24,78.3 184.81,154 279.81,227.2 94.69,73.7 191.74,143.6 289.26,211.4 97.51,67.8 196.9,131.3 295.97,192.8 50.2,29.7 99.4,60.3 149.7,88.3 25.1,14.3 50,28.4 74.9,42.5 25.1,13.7 50.2,27.3 75.1,40.8 199.8,107.8 400.4,198.9 594.3,276.2 194,77.3 382.5,138.2 558.7,186.6 176.3,48.2 340.4,83.8 487,109.2 36.6,6.6 72.2,11.7 106.6,17.3 17.1,2.7 34,5.6 50.5,7.9 16.6,2.1 32.9,4.3 48.9,6.4 31.9,4.1 62.5,8.5 91.9,11.9 29.3,3.1 57.3,6 83.9,8.8 53.1,6.2 100.8,9 142.2,12.5 41.4,3.6 76.7,5.4 105.3,6.8 57.2,2.9 87.7,4.5 87.7,4.5 78.2,4.1 144.9,-56 149,-134.3 4,-78.1 -56.1,-144.8 -134.3,-148.9 -1.6,-0.1 -3.1,-0.1 -4.6,-0.2 h -4.2 c 0,0 -29,-0.4 -83.4,-1.2 -27.1,-0.4 -60.7,-0.8 -100,-2.8 -39.4,-1.8 -84.7,-2.7 -135.3,-6.7 -25.3,-1.8 -52,-3.5 -80,-5.4 -28,-2.3 -57.1,-5.3 -87.6,-8.1 -15.3,-1.4 -30.8,-2.9 -46.7,-4.4 -15.8,-1.6 -31.9,-3.8 -48.3,-5.7 -32.8,-4.1 -66.9,-7.7 -101.9,-12.6 -140.2,-19 -297.7,-47.1 -467.7,-86.8 -169.8,-39.9 -352.3,-91.4 -541.3,-158.7 -188.9,-67.3 -385.2,-147.7 -582.3,-244.8 -24.6,-12.2 -49.3,-24.4 -74.1,-36.7 -24.6,-12.7 -49.2,-25.6 -74,-38.4 -49.8,-25.3 -98.6,-53.3 -148.3,-80.3 -98.3,-56 -197.29,-114.2 -294.69,-176.7 -97.41,-62.4 -194.65,-127.1 -289.85,-195.7 -95.5,-68.1 -189.86,-138.8 -282.15,-212.2 -46.55,-36.3 -91.84,-74.1 -137.58,-111.3 -44.97,-38.1 -90.4,-75.7 -134.49,-114.7 -88.97,-77 -175.55,-156.2 -260.02,-236.3 -169.1,-160.2 -328.72,-325.3 -478.09,-489.9 -74.7,-82.3 -146.43,-164.8 -215.96,-246.2 -68.95,-81.9 -135.85,-162.6 -199.38,-242.5 -127.48,-159.3 -243.26,-313.9 -347.69,-458.5 -208.2,-289.6 -369.56,-539.8 -479.81,-716.5 -55.23,-88.4 -97.46,-158.5 -126.3,-206.3 -28.59,-47.9 -43.84,-73.5 -43.84,-73.5" /></g></g></svg>