<?xml version="1.0" encoding="iso-8859-1"?>
<!-- Generator: Adobe Illustrator 19.0.0, SVG Export Plug-In . SVG Version: 6.00 Build 0)  -->
<svg version="1.1" id="Layer_1" xmlns="http://www.w3.org/2000/svg" xmlns:xlink="http://www.w3.org/1999/xlink" x="0px" y="0px"
	 viewBox="0 0 512 512" style="enable-background:new 0 0 512 512;" xml:space="preserve">
<path style="fill:#AFB0B4;" d="M349.867,332.8h-51.2c-4.713,0-8.533,3.821-8.533,8.533v162.133c0,4.713,3.821,8.533,8.533,8.533
	h51.2c4.713,0,8.533-3.821,8.533-8.533V341.333C358.4,336.621,354.579,332.8,349.867,332.8z"/>
<path style="fill:#88898E;" d="M298.667,332.8h-85.333c-4.713,0-8.533,3.821-8.533,8.533v162.133c0,4.713,3.821,8.533,8.533,8.533
	h85.333c4.713,0,8.533-3.821,8.533-8.533V341.333C307.2,336.621,303.379,332.8,298.667,332.8z"/>
<path style="fill:#CF442B;" d="M435.2,85.333H145.067c-42.348,0-76.8,34.452-76.8,76.8v179.2c0,4.713,3.821,8.533,8.533,8.533
	h426.667c4.713,0,8.533-3.821,8.533-8.533v-179.2C512,119.786,477.548,85.333,435.2,85.333z"/>
<path style="fill:#B83C26;" d="M102.4,341.333v-179.2c0-42.348,34.452-76.8,76.8-76.8h-34.133c-42.348,0-76.8,34.452-76.8,76.8
	v179.2c0,4.713,3.821,8.533,8.533,8.533h34.133C106.221,349.867,102.4,346.046,102.4,341.333z"/>
<path style="fill:#EBEBEC;" d="M264.533,162.133h-256c-4.713,0-8.533,3.821-8.533,8.533v170.667c0,4.713,3.821,8.533,8.533,8.533
	h256c4.713,0,8.533-3.821,8.533-8.533V170.667C273.067,165.954,269.246,162.133,264.533,162.133z"/>
<path style="fill:#D7D8D9;" d="M141.865,305.33L273.067,201.6v-22.4H0v22.4l131.202,103.73
	C134.283,307.794,138.784,307.794,141.865,305.33z"/>
<path style="fill:#EBEBEC;" d="M272.586,167.842c-1.199-3.42-4.429-5.709-8.052-5.709h-256c-3.475,0-6.683,2.189-7.948,5.426
	c-1.344,3.439-0.267,7.465,2.617,9.771l128,102.4c3.079,2.464,7.582,2.464,10.661,0l128-102.4
	C272.693,175.067,273.786,171.262,272.586,167.842z"/>
<path style="fill:#F58F6C;" d="M45.241,477.867h170.07c3.866,0,7.249-2.599,8.245-6.335L256,349.867H68.267L36.995,467.135
	C35.551,472.551,39.634,477.867,45.241,477.867z"/>
<path style="fill:#F07B52;" d="M435.2,85.333h-256c42.348,0,76.8,34.452,76.8,76.8v187.733h247.467c4.713,0,8.533-3.821,8.533-8.533
	v-179.2C512,119.786,477.548,85.333,435.2,85.333z"/>
<circle style="fill:#FDD042;" cx="384" cy="179.2" r="42.667"/>
<circle style="fill:#E1A527;" cx="384" cy="179.2" r="25.6"/>
<path style="fill:#606268;" d="M384,187.733c-4.713,0-8.533-3.821-8.533-8.533V8.533C375.467,3.821,379.287,0,384,0
	c4.713,0,8.533,3.821,8.533,8.533V179.2C392.533,183.913,388.713,187.733,384,187.733z"/>
<path style="fill:#FDD042;" d="M452.267,0H384c-4.713,0-8.533,3.821-8.533,8.533v34.133c0,4.713,3.821,8.533,8.533,8.533h68.267
	c4.713,0,8.533-3.821,8.533-8.533V8.533C460.8,3.821,456.979,0,452.267,0z"/>
<g>
	<path style="fill:#B83C26;" d="M426.667,315.733H315.733c-4.713,0-8.533-3.821-8.533-8.533s3.821-8.533,8.533-8.533h110.933
		c4.713,0,8.533,3.821,8.533,8.533S431.379,315.733,426.667,315.733z"/>
	<path style="fill:#B83C26;" d="M469.333,315.733h-17.067c-4.713,0-8.533-3.821-8.533-8.533s3.821-8.533,8.533-8.533h17.067
		c4.713,0,8.533,3.821,8.533,8.533S474.046,315.733,469.333,315.733z"/>
</g>
<g>
</g>
<g>
</g>
<g>
</g>
<g>
</g>
<g>
</g>
<g>
</g>
<g>
</g>
<g>
</g>
<g>
</g>
<g>
</g>
<g>
</g>
<g>
</g>
<g>
</g>
<g>
</g>
<g>
</g>
</svg>
